<?xml version="1.0" encoding="utf-8"?>
<!-- Generator: Adobe Illustrator 16.0.0, SVG Export Plug-In . SVG Version: 6.00 Build 0)  -->
<!DOCTYPE svg PUBLIC "-//W3C//DTD SVG 1.1//EN" "http://www.w3.org/Graphics/SVG/1.1/DTD/svg11.dtd">
<svg version="1.1" id="Layer_1" xmlns="http://www.w3.org/2000/svg" xmlns:xlink="http://www.w3.org/1999/xlink" x="0px" y="0px"
	 width="338.333px" height="91.333px" viewBox="0 0 338.333 91.333" enable-background="new 0 0 338.333 91.333"
	 xml:space="preserve">
<polygon fill="#FFDE17" points="0,12.667 0,26.544 0,29.145 0,35.333 344.667,35.333 344.667,29.145 344.667,26.544 344.667,12.667 
	"/>
<rect y="36.577" fill="#F99D1C" width="344.667" height="8.789"/>
<rect y="47.75" fill="#DB6921" width="344.667" height="6.508"/>
<rect y="57.783" fill="#BC3526" width="344.667" height="6.508"/>
<rect y="69.327" fill="#7C2A8C" width="344.667" height="3.485"/>
<rect y="79.359" fill="#1452A4" width="344.667" height="3.486"/>
<g id="Du5UEm.tif_1_">
	<g>
		<g>
			<path fill-rule="evenodd" clip-rule="evenodd" d="M302.483-0.171c1.71,1.176,3.375,2.427,5.14,3.514
				c4.088,2.52,4.279,8.12,0.776,11.846c-2.805,2.984-5.178,6.394-7.572,9.737c-2.415,3.373-4.818,6.783-6.874,10.379
				c-4.039,7.061-8.056,14.153-11.644,21.447c-2.06,4.188-3.26,8.8-4.468,13.709c1.615-1.047,3.446-1.869,4.809-3.18
				c5.931-5.699,11.853-11.421,17.496-17.4c1.822-1.931,2.598-4.807,4.184-7.013c1.957-2.723,4.183-5.269,6.471-7.724
				c0.504-0.541,2.05-0.829,2.611-0.462c1.747,1.142,3.504,2.455,4.787,4.073c1.771,2.235,0.942,4.811-1.255,6.613
				c-2.728,2.238-5.348,4.637-7.796,7.178c-2.253,2.337-2.214,3.798-0.475,6.62c0.14,0.226,0.269,0.459,0.418,0.678
				c4.272,6.267,4.453,6.429-0.522,11.945c-3.473,3.851-7.294,7.521-12.754,8.577c-3.313,0.641-4.221,0.075-5.027-3.148
				c-0.149-0.6-0.314-1.197-0.479-1.793c-0.72-2.609-0.198-4.413,2.521-5.789c3.921-1.984,7.063-5.021,9.294-8.894
				c1.313-2.277,1.309-2.732-0.428-5.99c-5.863,5.303-11.638,10.445-17.317,15.691c-3.177,2.934-6.198,6.036-9.285,9.066
				c-0.313,0.308-0.631,0.62-0.894,0.97c-2.451,3.258-2.453,3.26-5.207,0.055c-3.067-3.571-3.067-3.571-3.934-7.502
				c-1.398,1.643-2.797,3.283-4.193,4.927c-0.689,0.812-1.322,1.678-2.069,2.43c-2.733,2.758-4.195,2.734-6.688-0.109
				c-1.05-1.198-2.231-2.356-2.971-3.738c-1.307-2.443-2.32-5.043-3.472-7.611c0.399-0.193,0.111-0.139-0.048,0.036
				c-3.382,3.697-6.844,7.327-10.073,11.153c-1.382,1.639-2.688,1.483-4.142,0.58c-4.679-2.907-6.136-6.505-3.8-11.436
				c5.031-10.621,10.444-21.062,15.679-31.588c0.739-1.487,1.728-1.957,3.164-1.015c2.069,1.357,4.269,2.577,6.122,4.188
				c2.558,2.222,2.498,5.035,0.156,7.387c-6.312,6.34-10.95,13.872-15.367,21.561c-0.203,0.354-0.312,0.761-0.034,1.62
				c1.253-0.979,2.532-1.929,3.755-2.944c2.858-2.375,5.723-4.744,8.515-7.193c1.186-1.039,2.317-2.185,3.264-3.441
				c2.719-3.608,5.023-7.58,8.062-10.884c3.56-3.87,7.634-7.291,11.708-10.635c0.654-0.538,2.583,0.11,3.729,0.634
				c1.4,0.64,2.597,1.727,4.07,2.751c0.473-0.654,0.93-1.158,1.243-1.739c3.777-7.008,7.47-14.064,11.321-21.031
				c2.189-3.96,4.723-7.73,6.917-11.688c0.926-1.669,1.376-3.602,2.043-5.415C302.128-0.171,302.306-0.171,302.483-0.171z
				 M255.901,73.689c6.979-0.656,18.925-15.287,19.587-23.523C266.434,55.844,260.434,63.884,255.901,73.689z"/>
			<path fill-rule="evenodd" clip-rule="evenodd" d="M137.712,1.061c2.683,1.689,5.622,3.162,8.101,5.196
				c3.107,2.549,3.089,4.779,0.698,7.991c-4.067,5.461-8.247,10.846-12.116,16.445c-2.743,3.969-5.053,8.237-7.551,12.375
				c-0.183,0.302-0.272,0.673-0.497,0.934c-4.445,5.161-6.835,11.46-9.748,17.475c-1.089,2.251-2.423,4.384-3.535,6.625
				c-0.467,0.941-0.648,2.023-0.694,3.176c6.849-3.708,13.108-7.985,17.975-13.923c5.144-6.276,10.605-12.251,17.315-16.803
				c3.205-2.173,7.099-3.377,10.776-4.768c0.748-0.283,2.072,0.361,2.877,0.935c3.394,2.417,4.309,7.118,2.177,11.037
				c-4.914-1.706-8.576,1.601-12.083,3.889c-8.239,5.373-15.229,12.151-19.39,21.347c0.183,0.205,0.365,0.41,0.548,0.615
				c2.873-2.521,5.771-5.016,8.613-7.573c2.963-2.665,5.975-5.289,8.774-8.12c2.781-2.813,5.325-5.861,8.013-8.851
				c5.736,1.881,7.695,6.091,3.503,10.823c-2.462,2.779-4.302,6.109-6.073,9.46c6.856-4.789,13.609-9.595,17.656-17.147
				c0.264-0.493,0.485-1.223,0.317-1.699c-1.624-4.617,1.727-7.407,3.851-10.629c0.373-0.566,1.082-0.898,1.569-1.404
				c1.219-1.268,2.292-3.501,3.619-3.653c2.232-0.257,4.651,0.676,6.924,1.338c2.084,0.606,3.042,2.284,3.324,4.383
				c0.286,2.13-1.308,2.81-2.694,3.805c-2.02,1.449-3.872,3.13-5.795,4.712c0.14,0.324,0.279,0.649,0.419,0.974
				c2.252,0.16,4.508,0.274,6.755,0.494c1.86,0.182,3.803,0.401,4.533,2.543c0.658,1.929,0.03,3.212-1.804,4.389
				c-7.447,4.782-12.681,11.323-15.236,20.489c1.071-0.506,1.893-0.725,2.505-1.209c4.172-3.303,8.489-6.459,12.362-10.086
				c1.971-1.847,3.175-4.538,4.624-6.91c2.792-4.572,5.161-9.453,8.378-13.695c2.227-2.935,5.485-5.137,8.454-7.446
				c4.357-3.388,9.112-2.164,12.791,1.891c3.018,3.326,2.835,6.43,2.406,10.473c-0.862,8.128-6.345,13.44-10.688,19.39
				c-2.779,3.807-6.436,7.042-10.018,10.168c-2.228,1.944-7.749,1.874-10.218-1.659c-1.859-2.66-2.958-5.851-4.51-9.04
				c-0.458,0.439-1.273,1.285-2.154,2.058c-3.455,3.033-6.873,6.113-10.444,9.004c-0.762,0.616-2.529,1.075-3.118,0.641
				c-3.102-2.294-7.318-3.618-8.303-7.979c-0.361-1.602-0.486-3.662,0.221-5.026c2.46-4.75,5.332-9.287,8.119-14.028
				c-1.271-0.711-2.709-0.602-4.151,0.944c-6.354,6.81-12.78,13.551-19.15,20.345c-1.752,1.87-3.395,3.843-5.101,5.758
				c-0.17,0.191-0.478,0.479-0.635,0.433c-1.573-0.474-3.211-0.852-4.644-1.61c-0.503-0.267-0.671-1.508-0.678-2.308
				c-0.018-2.322-0.214-4.725,0.297-6.949c0.517-2.249,1.796-4.323,3.062-7.203c-1.166,0.738-1.711,0.965-2.101,1.349
				c-5.043,4.958-10.108,9.894-15.067,14.935c-1.998,2.029-3.866,2.11-5.351-0.461c-2.049-3.549-3.263-7.298-0.886-11.292
				c0.471-0.792,0.641-1.763,0.95-2.651c-0.256-0.194-0.512-0.389-0.769-0.582c-2.804,2.983-5.662,5.919-8.398,8.963
				c-2.618,2.912-5.096,5.948-7.663,8.906c-1.391,1.602-2.791,1.852-4.522,0.266c-3.69-3.38-7.403-6.529-3.899-12.302
				c1.487-2.448,2.081-5.421,3.413-7.982c6.858-13.202,13.723-26.401,20.792-39.49C128.728,16.17,133.112,9.005,137.712,1.061z
				 M204.65,75.598c0.299,0.238,0.599,0.476,0.897,0.714c1.881-1.183,4.142-2.023,5.57-3.611c4.304-4.784,8.478-9.719,12.291-14.896
				c1.436-1.948,1.812-4.706,2.523-7.138c0.188-0.645-0.17-1.449-0.277-2.18c-0.784,0.203-1.68,0.229-2.335,0.637
				c-6.618,4.121-11.715,9.706-15.123,16.684C206.684,68.909,205.812,72.325,204.65,75.598z"/>
			<path fill-rule="evenodd" clip-rule="evenodd" d="M38.219,14.215c1.394,1.057,3.2,2.387,4.961,3.773
				c2.02,1.59,4.074,3.15,5.972,4.878c1.329,1.21,2.678,1.4,4.112,0.548c3.962-2.354,8.395-3.096,12.813-3.908
				c0.589-0.109,1.219-0.284,1.787-0.185c6.564,1.153,14.279,10.532,14,17.235c-0.159,3.809-0.666,7.512-4.845,9.5
				c-1.875,0.892-3.356,2.591-5.072,3.846c-1.298,0.949-2.111,2.446-4.419,2.022c-1.151-0.212-2.612,2.011-4.111,2.789
				c-3.753,1.947-7.607,3.7-11.423,5.527c-1.268,0.607-2.576,1.143-3.806,1.818c-3.259,1.79-6.38,3.872-9.761,5.379
				c-2.125,0.947-4.657,0.941-6.929,1.623c-0.888,0.267-1.842,1.097-2.285,1.927c-1.659,3.114-3.278,6.27-4.594,9.538
				c-0.765,1.899-1.119,4.026-1.301,6.082c-0.201,2.265-2.012,3.782-4.058,2.699c-3.889-2.058-6.337-5.511-8.044-9.476
				c-0.229-0.531,0.05-1.402,0.324-2.013c4.048-9.009,8.161-17.987,12.205-26.999c3.986-8.883,8.033-17.744,11.797-26.722
				C36.813,21.066,37.299,17.706,38.219,14.215z M71.754,28.417c-1.671,0.179-3.187,0.134-4.582,0.523
				c-9.328,2.602-16.967,8.237-24.567,13.91c-0.403,0.301-0.505,1.019-0.722,1.553c-0.384,0.949-0.609,1.994-1.146,2.843
				c-1.554,2.462-3.319,4.792-4.819,7.284c-0.754,1.252-1.113,2.742-1.893,4.744c1.695-0.706,2.649-0.973,3.469-1.465
				c7.282-4.375,14.642-8.633,21.762-13.259c3.391-2.203,6.447-4.987,9.402-7.776C70.804,34.751,72.285,32.19,71.754,28.417z"/>
			<path fill-rule="evenodd" clip-rule="evenodd" d="M68.563,67.275c0.572-3.895,2.396-8.906,5.236-13.524
				c1.48-2.406,2.896-4.981,4.889-6.916c4.088-3.966,7.721-8.788,13.868-9.797c1.538-0.252,3.562-0.283,4.721,0.516
				c1.887,1.301,3.033,3.649,4.878,5.045c2.616,1.979,1.071,4.233,1.087,6.471c0.058,7.903-4.894,13.436-9.221,19.099
				c-3.35,4.382-7.519,8.143-11.376,12.128c-1.969,2.034-7.917,1.851-10.539-1.262C69.597,76.059,68.354,72.68,68.563,67.275z
				 M77.689,75.591c0.188,0.24,0.376,0.481,0.564,0.722c1.834-1.151,4.043-1.967,5.432-3.517c4.352-4.859,8.589-9.853,12.457-15.1
				c1.432-1.943,1.783-4.716,2.471-7.154c0.176-0.622-0.244-1.412-0.39-2.125c-0.71,0.199-1.51,0.255-2.114,0.627
				c-1.427,0.877-2.849,1.802-4.117,2.89C84.619,58.256,79.248,65.794,77.689,75.591z"/>
			<path fill-rule="evenodd" clip-rule="evenodd" d="M260.231,5.533c2.918,2.032,5.565,3.56,7.813,5.539
				c1.875,1.65,1.296,4.303-0.867,5.543c-2.442,1.401-4.921,2.739-7.381,4.11c-1.574,0.877-3.116,1.82-4.726,2.626
				c-0.766,0.383-1.656,0.517-3.141,0.956C254.722,17.993,257.26,12.255,260.231,5.533z"/>
		</g>
	</g>
</g>
</svg>
